<svg width="42" height="42" viewBox="0 0 42 42" fill="none" xmlns="http://www.w3.org/2000/svg">
<circle cx="21" cy="21" r="20.5" fill="#2E92EF" stroke="#2E92EF"/>
<path d="M14.3721 32.0995H9.39643V16.6771H14.3721V32.0995ZM11.8816 14.5734C10.2905 14.5734 9 13.3049 9 11.7735C9 11.038 9.3036 10.3325 9.844 9.81235C10.3844 9.29221 11.1174 9 11.8816 9C12.6459 9 13.3788 9.29221 13.9192 9.81235C14.4596 10.3325 14.7632 11.038 14.7632 11.7735C14.7632 13.3049 13.4721 14.5734 11.8816 14.5734ZM32.9946 32.0995H28.0296V24.592C28.0296 22.8028 27.9921 20.5082 25.4427 20.5082C22.8557 20.5082 22.4593 22.4521 22.4593 24.4631V32.0995H17.4889V16.6771H22.2611V18.7809H22.3307C22.995 17.5692 24.6177 16.2904 27.0386 16.2904C32.0743 16.2904 33 19.4821 33 23.6278V32.0995H32.9946Z" fill="white"/>
</svg>
